<svg height="24pt" viewBox="0 -52 480 480" width="24pt" xmlns="http://www.w3.org/2000/svg"><path d="m24 152h48v176h-48zm0 0"/><path d="m24 152h48v176h-48zm0 0"/><path d="m120 104h48v224h-48zm0 0"/><path d="m120 104h48v224h-48zm0 0"/><path d="m216 184h48v144h-48zm0 0"/><path d="m216 184h48v144h-48zm0 0"/><path d="m312 96h48v232h-48zm0 0"/><path d="m408 0h48v328h-48zm0 0"/><path d="m312 96h48v232h-48zm0 0"/><path d="m408 0h48v328h-48zm0 0"/><path d="m472 360h-464c-4.417969 0-8 3.582031-8 8s3.582031 8 8 8h464c4.417969 0 8-3.582031 8-8s-3.582031-8-8-8zm0 0"/></svg>
